<!DOCTYPE svg PUBLIC "-//W3C//DTD SVG 20010904//EN" "http://www.w3.org/TR/2001/REC-SVG-20010904/DTD/svg10.dtd">
<svg version="1.0" xmlns="http://www.w3.org/2000/svg" width="261px" height="261px" viewBox="0 0 2610 2610" preserveAspectRatio="xMidYMid meet">
<g id="layer101" fill="#2d2e2f" stroke="none">
 <path d="M1815 2543 c-95 -29 -166 -66 -182 -96 -15 -29 -10 -81 8 -93 5 -3 -4 -18 -21 -34 -36 -34 -41 -87 -11 -129 20 -27 20 -28 0 -41 -42 -31 -29 -123 21 -150 19 -10 19 -12 4 -35 -10 -16 -15 -39 -12 -64 l3 -40 -29 37 c-69 86 -168 174 -264 236 -116 75 -136 81 -248 81 l-100 0 -125 -63 c-194 -97 -310 -206 -382 -362 -17 -36 -45 -83 -62 -105 -55 -69 -98 -171 -106 -255 -4 -41 -16 -98 -28 -126 -45 -114 -91 -348 -91 -464 0 -73 26 -226 45 -264 8 -16 15 -34 15 -40 0 -6 16 -34 35 -63 19 -28 44 -68 55 -88 83 -148 269 -271 455 -300 22 -4 60 -14 85 -23 31 -12 74 -17 135 -16 80 1 100 5 180 38 99 41 129 64 147 112 l11 32 76 -5 76 -5 75 49 c102 67 150 123 206 239 43 88 49 108 56 194 19 234 21 285 8 367 -11 73 -10 86 3 101 31 35 39 96 23 181 -20 102 -47 160 -90 188 -27 17 -36 31 -41 65 -4 24 -13 54 -19 68 -32 66 -44 88 -70 132 l-27 46 38 -19 c32 -17 50 -19 118 -14 44 4 101 13 127 21 42 14 50 14 77 -1 44 -22 51 -43 51 -142 0 -75 4 -95 27 -141 16 -31 44 -66 67 -83 37 -27 47 -30 97 -27 46 3 61 9 83 33 14 15 26 32 26 37 0 5 -15 44 -32 86 -25 58 -33 92 -33 137 0 63 9 83 111 245 49 78 68 149 61 231 -14 172 -154 296 -376 333 -115 19 -190 19 -256 -1z"/>
 </g>
<g id="layer102" fill="#684026" stroke="none">
 <path d="M1810 2539 c-94 -26 -164 -63 -179 -95 -14 -32 -14 -43 3 -75 12 -25 11 -28 -15 -54 -35 -32 -39 -87 -10 -124 18 -24 18 -25 -1 -45 -10 -11 -21 -31 -25 -43 -7 -31 14 -81 43 -100 22 -14 22 -17 9 -36 -20 -28 -19 -81 1 -112 9 -13 31 -29 50 -35 40 -14 146 -6 220 17 47 14 55 14 87 -2 41 -19 47 -35 47 -135 0 -97 12 -137 56 -188 64 -75 137 -93 201 -49 42 28 43 65 6 144 -22 45 -28 73 -28 123 0 69 9 89 111 250 120 191 61 408 -139 509 -125 63 -312 85 -437 50z"/>
 <path d="M965 2202 c-45 -17 -121 -55 -227 -115 -95 -52 -233 -216 -274 -324 -10 -25 -29 -57 -42 -70 -13 -13 -44 -67 -68 -119 -37 -78 -44 -104 -42 -142 l3 -47 29 62 c15 34 35 64 43 68 18 6 18 8 -15 -185 -22 -131 -19 -260 6 -260 24 0 114 -43 166 -80 25 -16 53 -30 63 -30 41 0 202 -53 258 -86 55 -31 57 -32 27 -7 -18 16 -32 32 -32 37 0 13 130 -4 185 -25 66 -25 168 -109 224 -186 25 -34 49 -62 53 -62 4 -1 1 18 -7 40 -17 47 -19 69 -6 69 15 0 86 -61 105 -91 22 -35 34 -29 73 40 15 25 43 69 64 96 20 28 49 79 64 115 15 36 30 67 34 70 19 15 51 107 52 148 0 26 6 85 12 132 10 67 16 85 30 88 13 3 17 -3 17 -23 0 -14 4 -23 10 -20 10 6 16 -11 28 -85 7 -39 11 -45 32 -45 39 0 52 37 47 135 -7 119 -58 240 -103 240 -12 0 -20 20 -40 103 -3 15 -10 30 -15 33 -5 3 -9 12 -9 20 0 18 -87 168 -122 211 -79 97 -232 221 -342 277 -79 39 -201 47 -281 18z m50 -317 c50 -7 117 -19 150 -26 33 -6 70 -13 83 -15 13 -3 40 -20 60 -39 l37 -35 -56 25 c-155 69 -450 88 -473 29 -6 -15 -36 -20 -36 -5 0 18 102 78 135 80 6 0 51 -6 100 -14z m353 -150 c11 -25 6 -32 -13 -17 -12 8 -16 42 -5 42 4 0 12 -11 18 -25z m-698 -326 c47 -1 68 -7 81 -20 17 -17 19 -17 19 -2 0 9 3 13 7 10 3 -4 6 -20 5 -37 0 -17 4 -28 9 -25 5 4 9 4 9 1 0 -3 -22 -17 -50 -31 -54 -27 -134 -34 -173 -14 -29 15 -77 60 -77 73 0 5 15 -4 33 -22 43 -42 60 -42 45 -1 -11 33 3 85 21 75 5 -3 37 -6 71 -7z m718 -104 c12 -3 22 -13 23 -23 0 -10 3 -12 6 -4 2 6 9 12 15 12 11 0 1 -59 -15 -78 -19 -24 4 -27 44 -5 21 12 39 18 39 14 0 -5 -19 -17 -42 -27 -55 -25 -131 -23 -184 4 -41 21 -104 83 -104 103 0 6 11 -3 25 -18 24 -28 24 -28 25 -5 0 13 4 32 10 42 10 19 5 20 158 -15z m-837 -197 c13 0 54 3 90 7 80 9 115 2 130 -26 9 -18 8 -25 -8 -40 -15 -15 -39 -20 -119 -25 l-101 -6 -36 32 c-37 32 -40 39 -52 100 l-7 35 40 -38 c23 -23 50 -39 63 -39z m730 -93 c41 -19 80 -35 89 -35 8 0 41 11 73 24 31 13 57 22 57 19 0 -19 -71 -85 -106 -99 -47 -18 -54 -17 -181 23 -92 29 -108 41 -99 78 10 38 74 35 167 -10z"/>
 <path d="M605 1340 c-10 -17 20 -44 40 -36 9 3 15 14 13 23 -4 21 -43 30 -53 13z"/>
 <path d="M1254 1245 c-8 -19 3 -35 26 -35 19 0 30 17 23 38 -6 17 -42 15 -49 -3z"/>
 <path d="M751 272 c-6 -2 -11 -7 -11 -12 0 -10 18 -16 74 -26 36 -6 38 -5 27 14 -10 19 -63 33 -90 24z"/>
 </g>
<g id="layer103" fill="#4b4949" stroke="none">
 <path d="M1785 2501 c-121 -45 -145 -63 -145 -110 0 -36 19 -39 94 -16 40 12 81 27 92 32 10 5 33 7 49 3 l30 -6 -43 -23 c-24 -12 -73 -31 -110 -43 -134 -41 -170 -75 -143 -134 14 -31 28 -30 131 6 92 32 124 37 118 18 -5 -17 -72 -50 -175 -89 l-83 -30 0 -39 c0 -41 20 -70 49 -70 9 0 55 11 101 24 131 39 124 21 -21 -52 -84 -42 -94 -50 -95 -75 -1 -38 29 -74 68 -80 41 -7 157 5 219 23 39 11 52 11 79 0 53 -22 65 -51 66 -165 0 -76 5 -108 19 -135 20 -40 71 -89 94 -91 82 -8 95 -5 124 21 l30 27 -37 77 c-51 108 -53 190 -7 255 12 16 21 32 21 36 0 3 18 34 41 67 61 93 80 135 86 193 13 124 -55 252 -162 307 -95 49 -291 99 -379 97 -22 -1 -72 -13 -111 -28z"/>
 <path d="M1014 2172 c-28 -10 -95 -46 -150 -81 -54 -35 -110 -71 -124 -79 -76 -47 -227 -232 -259 -316 -20 -54 -43 -186 -61 -351 -20 -186 -21 -201 -11 -186 5 7 13 11 19 7 5 -3 13 2 17 11 5 15 13 10 46 -26 44 -47 54 -50 142 -32 88 18 147 1 147 -43 -1 -23 -44 -61 -59 -51 -5 3 -12 1 -15 -4 -3 -5 8 -14 25 -21 17 -7 58 -30 90 -52 37 -23 72 -38 91 -38 l31 0 -23 25 c-30 32 -13 33 64 6 73 -26 151 -78 234 -156 44 -41 73 -62 77 -55 4 7 16 10 26 7 16 -4 17 -2 8 15 -6 12 -7 24 -2 29 14 14 90 -57 103 -96 6 -20 16 -32 23 -29 7 2 27 31 44 62 18 32 46 73 63 90 16 18 30 36 30 42 0 6 23 57 50 114 48 100 50 108 60 232 6 70 14 132 17 137 3 6 1 7 -5 3 -8 -5 -12 2 -12 19 0 34 -28 167 -47 225 -8 25 -44 106 -81 180 -63 129 -71 140 -179 251 -64 65 -134 127 -161 141 -65 36 -152 43 -218 20z m-19 -191 c-6 -4 -26 -11 -45 -14 l-35 -6 30 14 c34 16 64 20 50 6z m21 -80 c16 -5 70 -15 119 -22 99 -13 113 -18 168 -62 52 -42 46 -50 -16 -21 -74 33 -226 64 -323 64 -133 0 -202 -41 -78 -46 160 -8 213 -17 361 -61 87 -25 99 -26 97 -5 -2 15 8 16 24 0 10 -10 18 -48 10 -48 -2 0 -32 9 -67 20 -66 21 -255 52 -438 73 -58 6 -103 16 -103 22 1 14 72 63 117 80 45 16 89 18 129 6z m414 -231 c-13 -24 -58 -55 -67 -47 -3 4 11 25 31 47 20 22 37 48 37 58 1 9 4 5 6 -10 2 -15 -1 -36 -7 -48z m-339 19 c46 -23 51 -31 43 -64 l-6 -26 -28 32 c-24 30 -33 33 -91 37 -72 5 -94 -9 -101 -63 -4 -30 -4 -30 -12 8 -20 92 85 133 195 76z m-408 -279 c34 0 53 -6 67 -20 17 -17 20 -18 20 -3 0 9 3 13 7 10 3 -4 6 -20 5 -37 0 -16 1 -30 3 -30 3 0 20 14 39 30 19 17 37 26 41 21 9 -15 -114 -89 -170 -102 -38 -8 -61 -8 -93 0 -45 13 -122 74 -122 97 0 21 7 17 46 -26 45 -50 68 -54 52 -9 -15 43 4 84 35 75 12 -3 43 -6 70 -6z m521 -139 c14 -12 16 -10 16 11 0 13 6 32 13 41 11 17 17 17 79 2 89 -20 98 -24 99 -44 0 -10 2 -11 6 -3 2 6 9 12 15 12 11 0 1 -59 -15 -78 -21 -26 6 -26 54 1 27 15 49 22 49 17 0 -19 -103 -60 -150 -60 -91 0 -199 78 -215 156 -6 28 -5 28 14 -7 11 -19 27 -41 35 -48z m76 -254 c40 -21 80 -37 89 -37 9 0 42 11 74 24 31 13 57 20 57 16 0 -13 -67 -81 -92 -94 -34 -18 -92 -14 -171 12 -112 36 -136 50 -129 75 2 12 9 27 14 34 16 20 82 7 158 -30z"/>
 <path d="M605 1340 c-10 -17 20 -44 40 -36 9 3 15 14 13 23 -4 21 -43 30 -53 13z"/>
 <path d="M1254 1245 c-8 -19 3 -35 26 -35 19 0 30 17 23 38 -6 17 -42 15 -49 -3z"/>
 <path d="M413 1666 c-13 -15 -36 -56 -51 -90 -69 -146 -41 -159 31 -14 51 102 62 158 20 104z"/>
 <path d="M1760 1505 c0 -16 17 -98 42 -198 5 -21 18 -46 29 -55 20 -17 26 -42 10 -42 -6 0 -17 10 -27 23 -16 21 -16 21 -10 -23 8 -54 10 -56 40 -42 20 9 26 21 31 65 4 30 4 68 1 83 -3 16 -8 45 -11 64 -9 52 -58 134 -84 138 -14 2 -21 -2 -21 -13z"/>
 <path d="M611 991 c12 -16 30 -32 40 -34 23 -6 23 -4 4 33 -11 21 -23 30 -41 30 l-25 0 22 -29z"/>
 <path d="M751 272 c-6 -2 -11 -7 -11 -12 0 -10 18 -16 74 -26 36 -6 38 -5 27 14 -10 19 -63 33 -90 24z"/>
 </g>
<g id="layer104" fill="#a07458" stroke="none">
 <path d="M1785 2501 c-121 -45 -145 -63 -145 -110 0 -36 19 -39 94 -16 40 12 81 27 92 32 10 5 33 7 49 3 l30 -6 -43 -23 c-24 -12 -73 -31 -110 -43 -134 -41 -170 -75 -143 -134 14 -31 28 -30 131 6 92 32 124 37 118 18 -5 -17 -72 -50 -175 -89 l-83 -30 0 -39 c0 -41 20 -70 49 -70 9 0 55 11 101 24 131 39 124 21 -21 -52 -84 -42 -94 -50 -95 -75 -1 -38 29 -74 68 -80 41 -7 157 5 219 23 39 11 52 11 79 0 53 -22 65 -51 66 -165 0 -76 5 -108 19 -135 20 -40 71 -89 94 -91 82 -8 95 -5 124 21 l30 27 -37 77 c-51 108 -53 190 -7 255 12 16 21 32 21 36 0 3 18 34 41 67 61 93 80 135 86 193 13 124 -55 252 -162 307 -95 49 -291 99 -379 97 -22 -1 -72 -13 -111 -28z"/>
 <path d="M1014 2172 c-28 -10 -95 -46 -150 -81 -54 -35 -110 -71 -124 -79 -76 -47 -227 -232 -259 -316 -20 -54 -43 -186 -61 -351 -20 -186 -21 -201 -11 -186 5 7 13 11 19 7 5 -3 13 2 16 11 6 13 14 9 49 -26 l42 -43 60 8 c83 12 152 9 170 -6 35 -29 2 -90 -50 -90 -12 0 3 -13 40 -33 33 -18 75 -42 92 -55 17 -12 46 -22 64 -22 l32 0 -23 25 c-30 32 -13 33 64 6 73 -26 151 -78 234 -156 44 -41 73 -62 77 -55 4 7 16 10 26 7 16 -4 17 -2 8 15 -6 12 -7 24 -2 29 14 14 90 -57 103 -96 6 -20 16 -32 23 -29 7 2 27 31 44 62 18 32 46 73 63 90 16 18 30 36 30 42 0 6 23 57 50 114 48 100 50 108 60 232 6 70 14 132 17 137 3 6 1 7 -5 3 -8 -5 -12 2 -12 19 0 34 -28 167 -47 225 -8 25 -44 106 -81 180 -63 129 -71 140 -179 251 -64 65 -134 127 -161 141 -65 36 -152 43 -218 20z m-19 -191 c-6 -4 -26 -11 -45 -14 l-35 -6 30 14 c34 16 64 20 50 6z m21 -80 c16 -5 70 -15 119 -22 50 -6 102 -18 117 -26 39 -19 128 -113 128 -134 0 -11 -1 -19 -2 -19 -2 0 -32 9 -67 20 -66 21 -255 52 -438 73 -58 6 -103 16 -103 22 1 14 72 63 117 80 45 16 89 18 129 6z m414 -231 c-13 -24 -58 -55 -67 -47 -3 4 11 25 31 47 20 22 37 48 37 58 1 9 4 5 6 -10 2 -15 -1 -36 -7 -48z m-339 19 c46 -23 51 -31 43 -64 l-6 -26 -28 32 c-24 30 -33 33 -91 37 -72 5 -94 -9 -101 -63 -4 -30 -4 -30 -12 8 -20 92 85 133 195 76z m-354 -285 c38 -5 44 -9 51 -36 l8 -30 31 26 c18 15 34 22 38 17 9 -15 -114 -89 -170 -102 -38 -8 -61 -8 -93 0 -45 13 -122 74 -122 97 0 21 7 17 46 -26 43 -48 56 -50 48 -10 -4 16 -3 41 0 55 7 27 12 27 163 9z m467 -133 c14 -12 16 -10 16 15 0 56 7 58 119 33 l101 -22 0 -31 c0 -18 -7 -42 -16 -54 -19 -28 -14 -28 46 3 28 14 50 21 50 15 0 -19 -103 -60 -150 -60 -91 0 -199 78 -215 156 -6 28 -5 28 14 -7 11 -19 27 -41 35 -48z m76 -251 c69 -35 115 -38 170 -10 46 24 50 24 50 7 0 -15 -65 -80 -97 -96 -12 -6 -37 -11 -55 -11 -37 0 -213 53 -234 71 -19 16 -18 38 3 62 24 26 83 17 163 -23z"/>
 <path d="M873 1854 c-40 -18 14 -40 118 -48 42 -3 116 -15 165 -26 93 -22 135 -23 141 -4 4 13 -50 36 -142 59 -62 16 -260 29 -282 19z"/>
 <path d="M610 1331 c0 -27 19 -36 37 -18 18 18 9 37 -18 37 -12 0 -19 -7 -19 -19z"/>
 <path d="M1254 1245 c-4 -9 -2 -21 4 -27 15 -15 44 -1 40 19 -4 23 -36 29 -44 8z"/>
 <path d="M413 1666 c-13 -15 -36 -56 -51 -90 -69 -146 -41 -159 31 -14 51 102 62 158 20 104z"/>
 <path d="M1760 1505 c0 -16 17 -98 42 -198 5 -21 18 -46 29 -55 20 -17 26 -42 10 -42 -6 0 -17 10 -27 23 -16 21 -16 21 -10 -23 8 -54 10 -56 40 -42 20 9 26 21 31 65 4 30 4 68 1 83 -3 16 -8 45 -11 64 -9 52 -58 134 -84 138 -14 2 -21 -2 -21 -13z"/>
 <path d="M611 991 c12 -16 30 -32 40 -34 23 -6 23 -4 4 33 -11 21 -23 30 -41 30 l-25 0 22 -29z"/>
 </g>
<g id="layer105" fill="#c19981" stroke="none">
 <path d="M1890 2336 c0 -9 7 -16 16 -16 17 0 14 22 -4 28 -7 2 -12 -3 -12 -12z"/>
 <path d="M1981 2160 c-8 -5 -36 -6 -61 -3 -35 4 -49 1 -59 -11 -21 -25 -6 -46 33 -46 43 0 106 -52 99 -81 -3 -10 -13 -19 -22 -19 -48 0 -121 -35 -121 -58 1 -40 67 -37 106 5 19 20 26 23 43 14 55 -30 175 0 206 52 44 72 39 87 -34 125 -41 21 -168 36 -190 22z"/>
 <path d="M907 1853 c-12 -19 11 -30 83 -41 41 -6 111 -16 156 -23 44 -7 89 -9 100 -5 17 7 17 9 -9 22 -57 31 -317 68 -330 47z"/>
 <path d="M1364 1780 c25 -54 48 -71 54 -40 1 9 -16 33 -38 55 l-41 40 25 -55z"/>
 <path d="M1023 1746 c31 -7 71 -23 88 -35 40 -30 109 -41 109 -18 0 23 -32 37 -119 53 -97 17 -159 17 -78 0z"/>
 <path d="M640 1666 c-6 -8 -13 -36 -17 -63 -4 -38 -2 -53 11 -65 20 -20 20 -50 1 -87 l-14 -28 52 -7 c29 -3 66 -6 84 -6 29 0 32 -3 35 -35 l3 -35 28 25 c33 31 34 45 5 46 -16 0 -18 2 -8 6 36 14 40 60 10 118 -11 22 -20 45 -20 52 0 16 -29 35 -102 67 -46 21 -58 23 -68 12z"/>
 <path d="M974 1605 c-19 -15 -19 -15 5 -35 29 -25 43 -25 72 -1 20 16 21 21 10 35 -17 20 -61 21 -87 1z"/>
 <path d="M1437 1580 c-55 -30 -98 -33 -171 -15 -64 16 -68 16 -87 -1 -10 -9 -19 -27 -19 -40 0 -13 -5 -34 -11 -48 -7 -14 -9 -40 -5 -60 6 -30 11 -36 33 -36 15 0 34 -7 43 -15 17 -15 100 -39 174 -50 44 -7 46 -8 46 -42 0 -19 -5 -43 -10 -54 -15 -28 6 -25 57 9 l42 28 -27 16 c-40 24 -41 66 -1 104 29 28 30 32 28 104 -1 41 -5 82 -10 91 -13 25 -45 29 -82 9z"/>
 <path d="M2160 1550 c0 -32 45 -72 78 -68 39 4 37 29 -5 61 -44 33 -73 35 -73 7z"/>
 <path d="M988 1462 c-15 -3 -18 -15 -18 -80 0 -117 30 -138 65 -45 10 26 27 61 38 76 10 16 17 30 15 32 -8 8 -84 21 -100 17z"/>
 <path d="M534 1420 c-12 -5 -25 -13 -29 -19 -7 -13 29 -67 53 -80 15 -8 17 -2 18 50 0 61 -3 65 -42 49z"/>
 <path d="M1160 1355 c0 -3 10 -25 22 -48 l21 -42 13 30 c18 42 17 52 -8 59 -29 7 -48 8 -48 1z"/>
 <path d="M613 1334 c-3 -8 -1 -20 5 -26 15 -15 43 8 35 28 -7 19 -32 18 -40 -2z"/>
 <path d="M1254 1245 c-4 -10 -1 -21 7 -26 20 -12 34 -5 34 17 0 24 -33 31 -41 9z"/>
 <path d="M1051 954 c37 -19 102 -64 145 -98 73 -59 80 -62 92 -45 10 15 10 25 -2 54 -8 19 -20 35 -27 35 -7 0 -9 3 -6 7 10 9 -218 82 -258 82 -5 0 20 -15 56 -35z"/>
 </g>
<g id="layer106" fill="#aaa49f" stroke="none">
 <path d="M907 1853 c-12 -19 11 -30 83 -41 41 -6 111 -16 156 -23 44 -7 89 -9 100 -5 17 7 17 9 -9 22 -57 31 -317 68 -330 47z"/>
 <path d="M515 1406 c-18 -13 -18 -14 4 -45 12 -17 30 -35 39 -40 15 -8 17 -2 17 45 0 48 -2 54 -21 54 -11 0 -29 -6 -39 -14z"/>
 <path d="M790 1373 l0 -36 23 19 c43 37 44 54 1 54 -21 0 -24 -4 -24 -37z"/>
 <path d="M1167 1354 c-3 -4 3 -25 15 -48 l21 -41 13 30 c17 40 17 55 0 55 -8 0 -21 2 -28 5 -8 3 -17 3 -21 -1z"/>
 <path d="M613 1334 c-3 -8 -1 -20 5 -26 15 -15 43 8 35 28 -7 19 -32 18 -40 -2z"/>
 <path d="M1440 1270 c0 -17 -5 -40 -10 -51 -14 -26 3 -25 47 2 39 25 38 37 -5 62 l-32 19 0 -32z"/>
 <path d="M1254 1245 c-4 -10 -1 -21 7 -26 20 -12 34 -5 34 17 0 24 -33 31 -41 9z"/>
 </g>
<g id="layer107" fill="#d9d7d4" stroke="none">
 <path d="M990 1831 c42 -22 144 -34 185 -22 l30 8 -25 6 c-77 18 -136 27 -178 27 l-47 -1 35 -18z"/>
 <path d="M515 1406 c-18 -13 -18 -15 8 -50 33 -43 51 -47 44 -9 -3 15 -1 37 4 50 7 20 5 23 -14 23 -13 0 -32 -6 -42 -14z"/>
 <path d="M790 1380 c0 -36 9 -38 38 -7 25 26 20 37 -15 37 -19 0 -23 -5 -23 -30z"/>
 <path d="M1170 1346 c0 -20 21 -66 31 -66 7 0 32 61 27 65 -2 1 -15 5 -30 9 -21 5 -28 3 -28 -8z"/>
 <path d="M613 1334 c-6 -16 15 -37 29 -28 4 3 8 14 8 25 0 23 -28 26 -37 3z"/>
 <path d="M1445 1258 c-4 -18 -12 -39 -17 -45 -16 -20 10 -16 48 8 40 24 42 32 12 53 -31 22 -35 20 -43 -16z"/>
 <path d="M1254 1249 c-10 -17 23 -46 37 -32 7 7 9 19 6 27 -7 18 -33 21 -43 5z"/>
 </g>

</svg>