<!DOCTYPE svg PUBLIC "-//W3C//DTD SVG 20010904//EN" "http://www.w3.org/TR/2001/REC-SVG-20010904/DTD/svg10.dtd">
<svg version="1.0" xmlns="http://www.w3.org/2000/svg" width="512px" height="512px" viewBox="0 0 5120 5120" preserveAspectRatio="xMidYMid meet">
<g id="layer101" fill="#0c0c0a" stroke="none">
 <path d="M960 5040 l0 -80 160 0 160 0 0 -80 0 -80 160 0 160 0 0 -80 0 -80 80 0 80 0 0 -320 0 -320 -80 0 -80 0 0 -160 0 -160 -80 0 -80 0 0 -240 0 -240 -80 0 -80 0 0 -240 0 -240 -80 0 -80 0 0 -400 0 -400 -80 0 -80 0 0 -240 0 -240 80 0 80 0 0 -160 0 -160 80 0 80 0 0 -80 0 -80 160 0 160 0 0 -80 0 -80 80 0 80 0 0 -80 0 -80 80 0 80 0 0 -80 0 -80 80 0 80 0 0 -80 0 -80 160 0 160 0 0 80 0 80 320 0 320 0 0 80 0 80 80 0 80 0 0 80 0 80 160 0 160 0 0 80 0 80 80 0 80 0 0 80 0 80 80 0 80 0 0 80 0 80 80 0 80 0 0 240 0 240 80 0 80 0 0 240 0 240 -80 0 -80 0 0 560 0 560 -80 0 -80 0 0 80 0 80 -80 0 -80 0 0 80 0 80 -80 0 -80 0 0 400 0 400 160 0 160 0 0 80 0 80 160 0 160 0 0 80 0 80 160 0 160 0 0 80 0 80 80 0 80 0 0 80 0 80 -80 0 -80 0 0 -80 0 -80 -160 0 -160 0 0 -80 0 -80 -160 0 -160 0 0 -80 0 -80 -160 0 -160 0 0 -80 0 -80 -80 0 -80 0 0 -400 0 -400 80 0 80 0 0 -80 0 -80 80 0 80 0 0 -80 0 -80 80 0 80 0 0 -160 0 -160 -80 0 -80 0 0 -160 0 -160 -80 0 -80 0 0 -400 0 -400 -160 0 -160 0 0 -80 0 -80 -160 0 -160 0 0 80 0 80 -80 0 -80 0 0 -80 0 -80 -80 0 -80 0 0 -80 0 -80 -160 0 -160 0 0 80 0 80 -160 0 -160 0 0 80 0 80 -240 0 -240 0 0 640 0 640 80 0 80 0 0 240 0 240 80 0 80 0 0 160 0 160 80 0 80 0 0 320 0 320 -80 0 -80 0 0 80 0 80 -80 0 -80 0 0 80 0 80 -160 0 -160 0 0 80 0 80 -160 0 -160 0 0 -80z m2880 -2560 l0 -240 80 0 80 0 0 -240 0 -240 -80 0 -80 0 0 -240 0 -240 -80 0 -80 0 0 -80 0 -80 -80 0 -80 0 0 -80 0 -80 -160 0 -160 0 0 -80 0 -80 -80 0 -80 0 0 -80 0 -80 -320 0 -320 0 0 -80 0 -80 -160 0 -160 0 0 80 0 80 -80 0 -80 0 0 80 0 80 -80 0 -80 0 0 80 0 80 -80 0 -80 0 0 80 0 80 -160 0 -160 0 0 160 0 160 -80 0 -80 0 0 240 0 240 160 0 160 0 0 -80 0 -80 240 0 240 0 0 -80 0 -80 160 0 160 0 0 -80 0 -80 160 0 160 0 0 80 0 80 80 0 80 0 0 80 0 80 80 0 80 0 0 -80 0 -80 160 0 160 0 0 80 0 80 160 0 160 0 0 80 0 80 80 0 80 0 0 400 0 400 80 0 80 0 0 -240z"/>
 </g>
<g id="layer102" fill="#271b0f" stroke="none">
 <path d="M2240 4560 l0 -80 -80 0 -80 0 0 -80 0 -80 -80 0 -80 0 0 -80 0 -80 80 0 80 0 0 80 0 80 80 0 80 0 0 80 0 80 240 0 240 0 0 -80 0 -80 160 0 160 0 0 -80 0 -80 80 0 80 0 0 -80 0 -80 80 0 80 0 0 80 0 80 -80 0 -80 0 0 80 0 80 -80 0 -80 0 0 80 0 80 -160 0 -160 0 0 80 0 80 -240 0 -240 0 0 -80z"/>
 <path d="M1920 3760 l0 -80 80 0 80 0 0 80 0 80 -80 0 -80 0 0 -80z"/>
 <path d="M1440 2560 l0 -640 -160 0 -160 0 0 -160 0 -160 80 0 80 0 0 -160 0 -160 80 0 80 0 0 -80 0 -80 160 0 160 0 0 -80 0 -80 80 0 80 0 0 -80 0 -80 80 0 80 0 0 -80 0 -80 160 0 160 0 0 80 0 80 80 0 80 0 0 -80 0 -80 80 0 80 0 0 240 0 240 -80 0 -80 0 0 160 0 160 -160 0 -160 0 0 80 0 80 160 0 160 0 0 80 0 80 80 0 80 0 0 -80 0 -80 80 0 80 0 0 80 0 80 160 0 160 0 0 -80 0 -80 -80 0 -80 0 0 -80 0 -80 80 0 80 0 0 80 0 80 80 0 80 0 0 80 0 80 -80 0 -80 0 0 80 0 80 160 0 160 0 0 -80 0 -80 80 0 80 0 0 -160 0 -160 80 0 80 0 0 160 0 160 80 0 80 0 0 240 0 240 -80 0 -80 0 0 240 0 240 -80 0 -80 0 0 160 0 160 80 0 80 0 0 80 0 80 -80 0 -80 0 0 -80 0 -80 -80 0 -80 0 0 -160 0 -160 -80 0 -80 0 0 -320 0 -320 -80 0 -80 0 0 -80 0 -80 -160 0 -160 0 0 80 0 80 -80 0 -80 0 0 -80 0 -80 -80 0 -80 0 0 -80 0 -80 -160 0 -160 0 0 80 0 80 -160 0 -160 0 0 80 0 80 -160 0 -160 0 0 560 0 560 -80 0 -80 0 0 -640z m2240 -240 l0 -400 -80 0 -80 0 0 400 0 400 80 0 80 0 0 -400z m-1760 -480 l0 -80 160 0 160 0 0 -80 0 -80 -160 0 -160 0 0 80 0 80 -240 0 -240 0 0 80 0 80 240 0 240 0 0 -80z m960 0 l0 -80 -80 0 -80 0 0 80 0 80 80 0 80 0 0 -80z m-640 -880 l0 -160 -80 0 -80 0 0 160 0 160 80 0 80 0 0 -160z"/>
 </g>
<g id="layer103" fill="#303335" stroke="none">
 <path d="M1760 2480 l0 -80 80 0 80 0 0 80 0 80 -80 0 -80 0 0 -80z"/>
 <path d="M2720 2480 l0 -80 160 0 160 0 0 80 0 80 -160 0 -160 0 0 -80z"/>
 </g>
<g id="layer104" fill="#45382c" stroke="none">
 <path d="M1920 4960 l0 -160 80 0 80 0 0 -80 0 -80 -80 0 -80 0 0 -160 0 -160 80 0 80 0 0 80 0 80 80 0 80 0 0 80 0 80 240 0 240 0 0 -80 0 -80 160 0 160 0 0 -80 0 -80 80 0 80 0 0 -80 0 -80 -80 0 -80 0 0 -80 0 -80 80 0 80 0 0 -160 0 -160 80 0 80 0 0 -160 0 -160 80 0 80 0 0 -160 0 -160 80 0 80 0 0 240 0 240 -80 0 -80 0 0 80 0 80 -80 0 -80 0 0 160 0 160 -80 0 -80 0 0 80 0 80 80 0 80 0 0 160 0 160 80 0 80 0 0 160 0 160 80 0 80 0 0 160 0 160 -240 0 -240 0 0 -160 0 -160 -560 0 -560 0 0 160 0 160 -80 0 -80 0 0 -160z"/>
 <path d="M1760 3920 l0 -80 80 0 80 0 0 80 0 80 -80 0 -80 0 0 -80z"/>
 <path d="M2880 3680 l0 -160 -320 0 -320 0 0 -80 0 -80 160 0 160 0 0 -80 0 -80 80 0 80 0 0 80 0 80 80 0 80 0 0 80 0 80 80 0 80 0 0 160 0 160 -80 0 -80 0 0 -160z"/>
 <path d="M1600 3520 l0 -160 80 0 80 0 0 160 0 160 -80 0 -80 0 0 -160z"/>
 <path d="M1600 2640 l0 -80 80 0 80 0 0 80 0 80 -80 0 -80 0 0 -80z"/>
 <path d="M2080 2640 l0 -80 -80 0 -80 0 0 -80 0 -80 160 0 160 0 0 160 0 160 -80 0 -80 0 0 -80z"/>
 <path d="M2560 2560 l0 -160 80 0 80 0 0 160 0 160 -80 0 -80 0 0 -160z"/>
 <path d="M3200 2640 l0 -80 -80 0 -80 0 0 -80 0 -80 80 0 80 0 0 80 0 80 80 0 80 0 0 80 0 80 -80 0 -80 0 0 -80z"/>
 </g>
<g id="layer105" fill="#554437" stroke="none">
 <path d="M1280 5040 l0 -80 160 0 160 0 0 -80 0 -80 80 0 80 0 0 160 0 160 -240 0 -240 0 0 -80z"/>
 <path d="M3840 4960 l0 -160 80 0 80 0 0 160 0 160 -80 0 -80 0 0 -160z"/>
 <path d="M2080 3280 l0 -80 240 0 240 0 0 -80 0 -80 80 0 80 0 0 80 0 80 -80 0 -80 0 0 80 0 80 -240 0 -240 0 0 -80z"/>
 </g>
<g id="layer106" fill="#585148" stroke="none">
 <path d="M3360 1680 l0 -80 -80 0 -80 0 0 -80 0 -80 80 0 80 0 0 -80 0 -80 -160 0 -160 0 0 160 0 160 -240 0 -240 0 0 -240 0 -240 80 0 80 0 0 -240 0 -240 80 0 80 0 0 160 0 160 160 0 160 0 0 80 0 80 80 0 80 0 0 80 0 80 80 0 80 0 0 -80 0 -80 80 0 80 0 0 80 0 80 80 0 80 0 0 80 0 80 -160 0 -160 0 0 80 0 80 80 0 80 0 0 80 0 80 -160 0 -160 0 0 -80z m-480 -320 l0 -80 80 0 80 0 0 -80 0 -80 -80 0 -80 0 0 80 0 80 -80 0 -80 0 0 80 0 80 80 0 80 0 0 -80z"/>
 <path d="M1120 1520 l0 -80 80 0 80 0 0 80 0 80 -80 0 -80 0 0 -80z"/>
 <path d="M1280 1200 l0 -80 80 0 80 0 0 80 0 80 -80 0 -80 0 0 -80z"/>
 <path d="M1600 1040 l0 -80 80 0 80 0 0 -80 0 -80 80 0 80 0 0 -80 0 -80 80 0 80 0 0 80 0 80 80 0 80 0 0 160 0 160 -80 0 -80 0 0 -160 0 -160 -80 0 -80 0 0 80 0 80 -80 0 -80 0 0 80 0 80 -80 0 -80 0 0 -80z"/>
 <path d="M2400 720 l0 -80 80 0 80 0 0 80 0 80 -80 0 -80 0 0 -80z"/>
 </g>
<g id="layer107" fill="#615447" stroke="none">
 <path d="M1600 2240 l0 -160 240 0 240 0 0 80 0 80 -160 0 -160 0 0 80 0 80 -80 0 -80 0 0 -160z"/>
 <path d="M2560 2160 l0 -80 160 0 160 0 0 -80 0 -80 80 0 80 0 0 80 0 80 80 0 80 0 0 80 0 80 -320 0 -320 0 0 -80z"/>
 </g>
<g id="layer108" fill="#816859" stroke="none">
 <path d="M3680 3280 l0 -80 80 0 80 0 0 80 0 80 -80 0 -80 0 0 -80z"/>
 </g>
<g id="layer109" fill="#917965" stroke="none">
 <path d="M2080 4960 l0 -160 -80 0 -80 0 0 80 0 80 -80 0 -80 0 0 -160 0 -160 160 0 160 0 0 80 0 80 560 0 560 0 0 160 0 160 -560 0 -560 0 0 -160z"/>
 <path d="M3520 4720 l0 -80 80 0 80 0 0 80 0 80 -80 0 -80 0 0 -80z"/>
 <path d="M2240 4400 l0 -80 240 0 240 0 0 -80 0 -80 -240 0 -240 0 0 -80 0 -80 240 0 240 0 0 -80 0 -80 160 0 160 0 0 -160 0 -160 -80 0 -80 0 0 -80 0 -80 -80 0 -80 0 0 -160 0 -160 80 0 80 0 0 160 0 160 80 0 80 0 0 -80 0 -80 160 0 160 0 0 -240 0 -240 80 0 80 0 0 320 0 320 -80 0 -80 0 0 160 0 160 -80 0 -80 0 0 160 0 160 -240 0 -240 0 0 80 0 80 160 0 160 0 0 80 0 80 -160 0 -160 0 0 80 0 80 -240 0 -240 0 0 -80z"/>
 <path d="M1920 4000 l0 -160 -80 0 -80 0 0 -240 0 -240 80 0 80 0 0 80 0 80 80 0 80 0 0 -80 0 -80 80 0 80 0 0 80 0 80 -80 0 -80 0 0 80 0 80 -80 0 -80 0 0 80 0 80 80 0 80 0 0 160 0 160 -80 0 -80 0 0 -160z"/>
 <path d="M1600 2800 l0 -80 160 0 160 0 0 -80 0 -80 80 0 80 0 0 80 0 80 80 0 80 0 0 80 0 80 -320 0 -320 0 0 -80z"/>
 <path d="M2560 2800 l0 -80 80 0 80 0 0 -80 0 -80 80 0 80 0 0 80 0 80 80 0 80 0 0 -80 0 -80 80 0 80 0 0 -80 0 -80 -320 0 -320 0 0 -80 0 -80 320 0 320 0 0 80 0 80 80 0 80 0 0 80 0 80 -80 0 -80 0 0 80 0 80 -80 0 -80 0 0 80 0 80 -240 0 -240 0 0 -80z"/>
 <path d="M1600 2480 l0 -80 80 0 80 0 0 -80 0 -80 240 0 240 0 0 80 0 80 -240 0 -240 0 0 80 0 80 -80 0 -80 0 0 -80z"/>
 <path d="M3040 2000 l0 -80 80 0 80 0 0 80 0 80 -80 0 -80 0 0 -80z"/>
 <path d="M2240 1840 l0 -80 80 0 80 0 0 80 0 80 -80 0 -80 0 0 -80z"/>
 </g>
<g id="layer110" fill="#8b8281" stroke="none">
 <path d="M2080 3760 l0 -80 80 0 80 0 0 80 0 80 -80 0 -80 0 0 -80z"/>
 <path d="M2720 3600 l0 -80 80 0 80 0 0 80 0 80 -80 0 -80 0 0 -80z"/>
 <path d="M1760 2640 l0 -80 80 0 80 0 0 80 0 80 -80 0 -80 0 0 -80z"/>
 </g>
<g id="layer111" fill="#a28873" stroke="none">
 <path d="M2080 3600 l0 -80 80 0 80 0 0 80 0 80 -80 0 -80 0 0 -80z"/>
 </g>
<g id="layer112" fill="#988b7c" stroke="none">
 <path d="M3520 1520 l0 -80 80 0 80 0 0 80 0 80 -80 0 -80 0 0 -80z"/>
 <path d="M2720 1360 l0 -80 80 0 80 0 0 -80 0 -80 80 0 80 0 0 80 0 80 160 0 160 0 0 -80 0 -80 -80 0 -80 0 0 -80 0 -80 -160 0 -160 0 0 -160 0 -160 80 0 80 0 0 80 0 80 80 0 80 0 0 80 0 80 160 0 160 0 0 160 0 160 -80 0 -80 0 0 80 0 80 -160 0 -160 0 0 -80 0 -80 -80 0 -80 0 0 80 0 80 -80 0 -80 0 0 -80z"/>
 <path d="M2080 560 l0 -80 160 0 160 0 0 80 0 80 -160 0 -160 0 0 -80z"/>
 </g>
<g id="layer113" fill="#b89b8a" stroke="none">
 <path d="M2080 3920 l0 -80 320 0 320 0 0 -80 0 -80 80 0 80 0 0 80 0 80 -80 0 -80 0 0 80 0 80 -320 0 -320 0 0 -80z"/>
 <path d="M2080 3040 l0 -160 80 0 80 0 0 -240 0 -240 160 0 160 0 0 240 0 240 80 0 80 0 0 80 0 80 -80 0 -80 0 0 80 0 80 -240 0 -240 0 0 -160z"/>
 </g>
<g id="layer114" fill="#a9a6a0" stroke="none">
 <path d="M1760 5040 l0 -80 80 0 80 0 0 80 0 80 -80 0 -80 0 0 -80z"/>
 <path d="M3680 4880 l0 -240 80 0 80 0 0 240 0 240 -80 0 -80 0 0 -240z"/>
 <path d="M4000 4960 l0 -160 80 0 80 0 0 80 0 80 160 0 160 0 0 80 0 80 -240 0 -240 0 0 -160z"/>
 </g>
<g id="layer115" fill="#d5ba99" stroke="none">
 <path d="M2080 4160 l0 -160 80 0 80 0 0 80 0 80 240 0 240 0 0 -80 0 -80 160 0 160 0 0 80 0 80 -160 0 -160 0 0 80 0 80 -320 0 -320 0 0 -160z"/>
 <path d="M1920 3440 l0 -80 -160 0 -160 0 0 -240 0 -240 240 0 240 0 0 320 0 320 -80 0 -80 0 0 -80z"/>
 <path d="M2880 3200 l0 -160 -80 0 -80 0 0 -80 0 -80 160 0 160 0 0 -80 0 -80 -80 0 -80 0 0 -80 0 -80 80 0 80 0 0 80 0 80 160 0 160 0 0 240 0 240 -160 0 -160 0 0 80 0 80 -80 0 -80 0 0 -160z"/>
 <path d="M2240 2320 l0 -80 -80 0 -80 0 0 -80 0 -80 -80 0 -80 0 0 -80 0 -80 240 0 240 0 0 -80 0 -80 80 0 80 0 0 80 0 80 80 0 80 0 0 80 0 80 -80 0 -80 0 0 160 0 160 -160 0 -160 0 0 -80z"/>
 <path d="M3200 2240 l0 -160 80 0 80 0 0 160 0 160 -80 0 -80 0 0 -160z"/>
 </g>
<g id="layer116" fill="#dcd5d0" stroke="none">
 <path d="M2240 3680 l0 -160 240 0 240 0 0 160 0 160 -240 0 -240 0 0 -160z"/>
 </g>

</svg>